<mxfile host="app.diagrams.net" modified="2023-11-27T11:26:40.681Z" agent="Mozilla/5.0 (Windows NT 10.0; Win64; x64) AppleWebKit/537.36 (KHTML, like Gecko) Chrome/119.0.0.0 Safari/537.36" etag="lqVFiqA2mWzhklBDvP9B" version="22.1.4" type="github">
  <diagram name="第 1 页" id="0guYEPcLW2XiCTTwkZSu">
    <mxGraphModel dx="1020" dy="51" grid="0" gridSize="10" guides="1" tooltips="1" connect="1" arrows="1" fold="1" page="0" pageScale="1" pageWidth="827" pageHeight="1169" math="0" shadow="0">
      <root>
        <mxCell id="0" />
        <mxCell id="1" parent="0" />
        <mxCell id="1YQMZuG3S02R0JHDBI4F-1" value="以太网数据收发模块" style="rounded=0;whiteSpace=wrap;html=1;" parent="1" vertex="1">
          <mxGeometry x="123.5" y="561" width="245" height="43" as="geometry" />
        </mxCell>
        <mxCell id="1YQMZuG3S02R0JHDBI4F-2" value="安全功能模块" style="rounded=0;whiteSpace=wrap;html=1;" parent="1" vertex="1">
          <mxGeometry x="122" y="455" width="248" height="48" as="geometry" />
        </mxCell>
        <mxCell id="1YQMZuG3S02R0JHDBI4F-5" value="" style="shape=flexArrow;endArrow=classic;startArrow=classic;html=1;rounded=0;" parent="1" edge="1">
          <mxGeometry width="100" height="100" relative="1" as="geometry">
            <mxPoint x="245.5" y="559" as="sourcePoint" />
            <mxPoint x="245.5" y="503" as="targetPoint" />
          </mxGeometry>
        </mxCell>
        <mxCell id="1YQMZuG3S02R0JHDBI4F-6" value="网卡&lt;br&gt;1" style="rounded=0;whiteSpace=wrap;html=1;" parent="1" vertex="1">
          <mxGeometry x="282" y="711" width="23" height="105" as="geometry" />
        </mxCell>
        <mxCell id="1YQMZuG3S02R0JHDBI4F-8" value="&lt;font style=&quot;font-size: 20px;&quot;&gt;......&lt;/font&gt;" style="text;html=1;align=center;verticalAlign=middle;resizable=0;points=[];autosize=1;strokeColor=none;fillColor=none;" parent="1" vertex="1">
          <mxGeometry x="297" y="718.75" width="51" height="36" as="geometry" />
        </mxCell>
        <mxCell id="1YQMZuG3S02R0JHDBI4F-9" value="MODBUS_RTU串行数据转换模块" style="rounded=1;whiteSpace=wrap;html=1;" parent="1" vertex="1">
          <mxGeometry x="122" y="711" width="98" height="30.5" as="geometry" />
        </mxCell>
        <mxCell id="1YQMZuG3S02R0JHDBI4F-15" value="网卡&lt;br&gt;n" style="rounded=0;whiteSpace=wrap;html=1;" parent="1" vertex="1">
          <mxGeometry x="343" y="710" width="23" height="106" as="geometry" />
        </mxCell>
        <mxCell id="1YQMZuG3S02R0JHDBI4F-17" value="串口&lt;br&gt;1" style="rounded=0;whiteSpace=wrap;html=1;" parent="1" vertex="1">
          <mxGeometry x="125" y="753" width="21" height="60" as="geometry" />
        </mxCell>
        <mxCell id="1YQMZuG3S02R0JHDBI4F-18" value="串口&lt;br&gt;n" style="rounded=0;whiteSpace=wrap;html=1;" parent="1" vertex="1">
          <mxGeometry x="193.5" y="753" width="21" height="60" as="geometry" />
        </mxCell>
        <mxCell id="1YQMZuG3S02R0JHDBI4F-19" value="&lt;font style=&quot;font-size: 20px;&quot;&gt;......&lt;/font&gt;" style="text;html=1;align=center;verticalAlign=middle;resizable=0;points=[];autosize=1;strokeColor=none;fillColor=none;" parent="1" vertex="1">
          <mxGeometry x="142.5" y="757" width="51" height="36" as="geometry" />
        </mxCell>
        <mxCell id="1YQMZuG3S02R0JHDBI4F-20" value="" style="curved=1;endArrow=classic;html=1;rounded=0;strokeColor=#365EFF;" parent="1" edge="1">
          <mxGeometry width="50" height="50" relative="1" as="geometry">
            <mxPoint x="134" y="749" as="sourcePoint" />
            <mxPoint x="209" y="749" as="targetPoint" />
            <Array as="points">
              <mxPoint x="139" y="576" />
              <mxPoint x="170" y="437" />
              <mxPoint x="200" y="529" />
            </Array>
          </mxGeometry>
        </mxCell>
        <mxCell id="1YQMZuG3S02R0JHDBI4F-21" value="" style="curved=1;endArrow=classic;html=1;rounded=0;strokeColor=#FF3721;entryX=-0.02;entryY=-0.11;entryDx=0;entryDy=0;entryPerimeter=0;" parent="1" target="1YQMZuG3S02R0JHDBI4F-8" edge="1">
          <mxGeometry width="50" height="50" relative="1" as="geometry">
            <mxPoint x="199" y="748.5" as="sourcePoint" />
            <mxPoint x="326" y="753" as="targetPoint" />
            <Array as="points">
              <mxPoint x="192" y="611" />
              <mxPoint x="230" y="430" />
              <mxPoint x="281" y="540" />
              <mxPoint x="281" y="672" />
            </Array>
          </mxGeometry>
        </mxCell>
        <mxCell id="skNHAEBczsYI5l0UEeBx-1" value="模拟网卡队列" style="rounded=1;whiteSpace=wrap;html=1;" vertex="1" parent="1">
          <mxGeometry x="128.5" y="614" width="14" height="89" as="geometry" />
        </mxCell>
        <mxCell id="skNHAEBczsYI5l0UEeBx-5" value="模拟网卡队列" style="rounded=1;whiteSpace=wrap;html=1;" vertex="1" parent="1">
          <mxGeometry x="191" y="614" width="14" height="89" as="geometry" />
        </mxCell>
        <mxCell id="skNHAEBczsYI5l0UEeBx-6" value="一般网卡队列" style="rounded=1;whiteSpace=wrap;html=1;" vertex="1" parent="1">
          <mxGeometry x="286.5" y="614" width="14" height="89" as="geometry" />
        </mxCell>
        <mxCell id="skNHAEBczsYI5l0UEeBx-7" value="一般网卡队列" style="rounded=1;whiteSpace=wrap;html=1;" vertex="1" parent="1">
          <mxGeometry x="347.5" y="614" width="14" height="89" as="geometry" />
        </mxCell>
      </root>
    </mxGraphModel>
  </diagram>
</mxfile>
